<svg width="5499.999999999999" height="5499.999999999999" xmlns="http://www.w3.org/2000/svg">
    <!-- Created with Method Draw - http://github.com/duopixel/Method-Draw/ -->

    <g>
        <title>background</title>
        <rect fill="#fff" id="canvas_background" height="110212.56978" width="110212.56978" y="-1" x="-1"/>
        <g display="none" id="canvasGrid">
            <rect fill="url(#gridpattern)" stroke-width="0" y="0" x="0" height="100%" width="100%" id="svg_3"/>
        </g>
    </g>
    <g>
        <title>Layer 1</title>
        <rect fill="#fff" stroke="#000" stroke-width="50" stroke-opacity="null" fill-opacity="null" x="139.96003" y="169.96049" width="5240.08025" height="5180.07933" id="svg_1"/>
        <path fill="#fff" stroke="#000" stroke-width="50" stroke-opacity="null" fill-opacity="null" d="m2765.47011,941.93643c-1012.66303,0 -1833.5028,820.88818 -1833.5028,1833.50352c0,1012.66738 820.83977,1833.50265 1833.5028,1833.50265c1012.61564,0 1833.50338,-820.83527 1833.50338,-1833.50265c0,-1012.61535 -820.8876,-1833.50352 -1833.50338,-1833.50352zm167.52029,2889.52709l-341.48727,0l0,-327.47931l341.48727,0l0,327.47931zm0,-677.14516l0,108.2293l-341.48727,0l0,-133.35278c0,-402.40682 457.94167,-466.26491 457.94167,-752.2695c0,-130.41236 -116.60181,-230.31176 -269.25145,-230.31176c-158.18175,0 -296.92024,116.55239 -296.92024,116.55239l-194.41858,-241.58164c0,0 191.62832,-199.8543 521.89673,-199.8543c313.72165,0 605.01152,194.27349 605.01152,521.80077c0.14639,458.18402 -482.77238,511.0234 -482.77238,810.78739l0,0.00014l0,-0.00001z" id="svg_2"/>
    </g>
</svg>